<?xml version="1.0" standalone="no"?>
<!DOCTYPE svg PUBLIC "-//W3C//DTD SVG 20010904//EN"
 "http://www.w3.org/TR/2001/REC-SVG-20010904/DTD/svg10.dtd">
<svg version="1.0" xmlns="http://www.w3.org/2000/svg"
 width="105.000000pt" height="64.000000pt" viewBox="0 0 105.000000 64.000000"
 preserveAspectRatio="xMidYMid meet">
<metadata>
Created by potrace 1.16, written by Peter Selinger 2001-2019
</metadata>
<g transform="translate(0.000000,64.000000) scale(0.100000,-0.100000)"
fill="#000000" stroke="none">
<path d="M150 593 c1 -21 2 -129 1 -241 l-1 -202 -24 6 c-52 13 -126 -48 -126
-104 0 -34 35 -55 81 -49 94 12 110 63 109 334 -1 107 0 196 2 198 2 2 44 -82
93 -188 48 -106 92 -196 96 -201 5 -5 40 58 79 140 38 82 83 176 99 209 l30
60 0 -201 1 -201 -46 -1 c-38 0 -52 -6 -75 -29 -40 -40 -46 -76 -19 -103 18
-18 30 -21 62 -17 22 3 49 14 60 24 44 39 48 68 48 343 0 241 -1 260 -17 260
-13 0 -31 -29 -63 -98 -24 -53 -69 -149 -99 -212 l-54 -115 -41 86 c-23 47
-67 143 -100 212 -46 99 -63 127 -78 127 -16 0 -19 -6 -18 -37z"/>
<path d="M660 315 l0 -318 123 5 c107 4 130 8 168 29 112 62 122 204 20 280
l-30 22 24 25 c52 52 57 145 10 201 -38 44 -96 63 -212 69 l-103 5 0 -318z
m215 274 c21 -6 54 -26 72 -44 26 -26 33 -41 33 -74 0 -57 -18 -90 -68 -121
l-43 -27 40 -12 c145 -43 140 -230 -7 -271 -20 -5 -76 -10 -124 -10 l-88 0 0
285 0 285 73 0 c39 0 90 -5 112 -11z"/>
</g>
</svg>
